<mxfile host="app.diagrams.net" modified="2024-09-03T16:03:19.294Z" agent="Mozilla/5.0 (Macintosh; Intel Mac OS X 10_15_7) AppleWebKit/537.36 (KHTML, like Gecko) Chrome/127.0.0.0 Safari/537.36" version="24.3.1" etag="0eRCnYRA6FemXcfMGG-R" type="github">
  <diagram name="Page-1" id="jaSnj064X-iEZP4IxgDp">
    <mxGraphModel>
      <root>
        <mxCell id="0" />
        <mxCell id="1" parent="0" />
      </root>
    </mxGraphModel>
  </diagram>
</mxfile>
